<svg xmlns="http://www.w3.org/2000/svg" xmlns:xlink="http://www.w3.org/1999/xlink" width="100" zoomAndPan="magnify" viewBox="0 0 75 74.999997" height="100" preserveAspectRatio="xMidYMid meet" version="1.0"><defs><g/><clipPath id="73d3fbbae4"><path d="M 7.5 7.5 L 67.5 7.5 L 67.5 67.5 L 7.5 67.5 Z M 7.5 7.5 " clip-rule="nonzero"/></clipPath></defs><path fill="#368058" d="M 53.082031 50.199219 L 21.957031 50.199219 C 20.832031 50.199219 19.917969 49.28125 19.917969 48.15625 L 19.917969 27.015625 C 19.917969 25.890625 20.832031 24.976562 21.957031 24.976562 L 29.132812 24.976562 C 29.355469 24.976562 29.535156 25.152344 29.535156 25.375 C 29.535156 25.59375 29.355469 25.777344 29.132812 25.777344 L 21.957031 25.777344 C 21.273438 25.777344 20.71875 26.332031 20.71875 27.015625 L 20.71875 48.15625 C 20.71875 48.839844 21.273438 49.398438 21.957031 49.398438 L 53.082031 49.398438 C 53.765625 49.398438 54.324219 48.839844 54.324219 48.15625 L 54.324219 27.015625 C 54.324219 26.332031 53.765625 25.773438 53.082031 25.773438 L 45.90625 25.773438 C 45.6875 25.773438 45.503906 25.59375 45.503906 25.375 C 45.503906 25.152344 45.683594 24.972656 45.90625 24.972656 L 53.082031 24.972656 C 54.207031 24.972656 55.121094 25.890625 55.121094 27.015625 L 55.121094 48.152344 C 55.125 49.28125 54.207031 50.199219 53.082031 50.199219 Z M 53.082031 50.199219 " fill-opacity="1" fill-rule="nonzero"/><path fill="#368058" d="M 52.226562 44.34375 L 22.8125 44.34375 C 22.59375 44.34375 22.414062 44.167969 22.414062 43.945312 L 22.414062 27.871094 C 22.414062 27.648438 22.59375 27.46875 22.8125 27.46875 L 29.136719 27.46875 C 29.355469 27.46875 29.535156 27.648438 29.535156 27.871094 C 29.535156 28.089844 29.355469 28.269531 29.136719 28.269531 L 23.210938 28.269531 L 23.210938 43.546875 L 51.828125 43.546875 L 51.828125 28.269531 L 45.902344 28.269531 C 45.683594 28.269531 45.503906 28.089844 45.503906 27.871094 C 45.503906 27.648438 45.683594 27.46875 45.902344 27.46875 L 52.226562 27.46875 C 52.445312 27.46875 52.625 27.648438 52.625 27.871094 L 52.625 43.945312 C 52.628906 44.167969 52.449219 44.34375 52.226562 44.34375 Z M 52.226562 44.34375 " fill-opacity="1" fill-rule="nonzero"/><path fill="#368058" d="M 33.429688 55.140625 C 33.351562 55.140625 33.269531 55.117188 33.199219 55.070312 C 33.019531 54.945312 32.972656 54.695312 33.101562 54.511719 C 35.160156 51.539062 34.746094 49.925781 34.742188 49.910156 C 34.675781 49.699219 34.796875 49.476562 35.007812 49.414062 C 35.21875 49.347656 35.441406 49.46875 35.507812 49.679688 C 35.53125 49.757812 36.070312 51.628906 33.757812 54.96875 C 33.679688 55.078125 33.554688 55.140625 33.429688 55.140625 Z M 33.429688 55.140625 " fill-opacity="1" fill-rule="nonzero"/><path fill="#368058" d="M 41.613281 55.140625 C 41.484375 55.140625 41.363281 55.082031 41.285156 54.96875 C 38.96875 51.628906 39.511719 49.757812 39.535156 49.679688 C 39.601562 49.46875 39.824219 49.351562 40.035156 49.417969 C 40.242188 49.480469 40.359375 49.703125 40.300781 49.910156 C 40.289062 49.949219 39.894531 51.558594 41.941406 54.511719 C 42.066406 54.695312 42.023438 54.941406 41.839844 55.070312 C 41.769531 55.117188 41.691406 55.140625 41.613281 55.140625 Z M 41.613281 55.140625 " fill-opacity="1" fill-rule="nonzero"/><path fill="#368058" d="M 43.167969 55.140625 L 31.875 55.140625 C 31.65625 55.140625 31.476562 54.960938 31.476562 54.738281 C 31.476562 54.519531 31.652344 54.339844 31.875 54.339844 L 43.167969 54.339844 C 43.386719 54.339844 43.566406 54.519531 43.566406 54.738281 C 43.566406 54.960938 43.386719 55.140625 43.167969 55.140625 Z M 43.167969 55.140625 " fill-opacity="1" fill-rule="nonzero"/><path fill="#368058" d="M 37.519531 48.351562 C 36.707031 48.351562 36.039062 47.6875 36.039062 46.871094 C 36.039062 46.054688 36.703125 45.390625 37.519531 45.390625 C 38.335938 45.390625 39 46.054688 39 46.871094 C 39 47.6875 38.335938 48.351562 37.519531 48.351562 Z M 37.519531 46.191406 C 37.144531 46.191406 36.839844 46.496094 36.839844 46.871094 C 36.839844 47.246094 37.144531 47.550781 37.519531 47.550781 C 37.894531 47.550781 38.199219 47.246094 38.199219 46.871094 C 38.199219 46.496094 37.894531 46.191406 37.519531 46.191406 Z M 37.519531 46.191406 " fill-opacity="1" fill-rule="nonzero"/><path fill="#368058" d="M 32.695312 47.269531 L 24.679688 47.269531 C 24.460938 47.269531 24.28125 47.09375 24.28125 46.871094 C 24.28125 46.652344 24.460938 46.46875 24.679688 46.46875 L 32.695312 46.46875 C 32.917969 46.46875 33.097656 46.648438 33.097656 46.871094 C 33.097656 47.089844 32.917969 47.269531 32.695312 47.269531 Z M 32.695312 47.269531 " fill-opacity="1" fill-rule="nonzero"/><path fill="#368058" d="M 50.359375 47.269531 L 42.34375 47.269531 C 42.125 47.269531 41.945312 47.09375 41.945312 46.871094 C 41.945312 46.652344 42.125 46.46875 42.34375 46.46875 L 50.359375 46.46875 C 50.582031 46.46875 50.761719 46.648438 50.761719 46.871094 C 50.761719 47.089844 50.582031 47.269531 50.359375 47.269531 Z M 50.359375 47.269531 " fill-opacity="1" fill-rule="nonzero"/><path fill="#368058" d="M 44.859375 42.191406 L 30.183594 42.191406 C 29.386719 42.191406 28.734375 41.539062 28.734375 40.742188 L 28.734375 21.425781 C 28.734375 20.628906 29.386719 19.976562 30.183594 19.976562 L 44.855469 19.976562 C 45.65625 19.976562 46.304688 20.628906 46.304688 21.425781 L 46.304688 40.742188 C 46.304688 41.539062 45.65625 42.191406 44.859375 42.191406 Z M 30.183594 20.777344 C 29.824219 20.777344 29.535156 21.066406 29.535156 21.425781 L 29.535156 40.742188 C 29.535156 41.097656 29.824219 41.390625 30.183594 41.390625 L 44.855469 41.390625 C 45.214844 41.390625 45.503906 41.097656 45.503906 40.742188 L 45.503906 21.425781 C 45.503906 21.070312 45.214844 20.777344 44.855469 20.777344 Z M 30.183594 20.777344 " fill-opacity="1" fill-rule="nonzero"/><path fill="#368058" d="M 45.90625 24.742188 L 29.136719 24.742188 C 28.914062 24.742188 28.734375 24.5625 28.734375 24.339844 C 28.734375 24.121094 28.914062 23.941406 29.136719 23.941406 L 45.90625 23.941406 C 46.125 23.941406 46.304688 24.117188 46.304688 24.339844 C 46.304688 24.5625 46.128906 24.742188 45.90625 24.742188 Z M 45.90625 24.742188 " fill-opacity="1" fill-rule="nonzero"/><path fill="#368058" d="M 31.617188 21.550781 C 32.039062 21.550781 32.378906 21.894531 32.378906 22.3125 C 32.378906 22.734375 32.039062 23.074219 31.617188 23.074219 C 31.195312 23.074219 30.855469 22.734375 30.855469 22.3125 C 30.855469 21.894531 31.195312 21.550781 31.617188 21.550781 Z M 31.617188 21.550781 " fill-opacity="1" fill-rule="evenodd"/><path fill="#368058" d="M 34.125 21.550781 C 34.546875 21.550781 34.886719 21.894531 34.886719 22.3125 C 34.886719 22.734375 34.546875 23.074219 34.125 23.074219 C 33.703125 23.074219 33.363281 22.734375 33.363281 22.3125 C 33.363281 21.894531 33.707031 21.550781 34.125 21.550781 Z M 34.125 21.550781 " fill-opacity="1" fill-rule="evenodd"/><path fill="#368058" d="M 36.636719 21.550781 C 37.058594 21.550781 37.398438 21.894531 37.398438 22.3125 C 37.398438 22.734375 37.058594 23.074219 36.636719 23.074219 C 36.214844 23.074219 35.875 22.734375 35.875 22.3125 C 35.875 21.894531 36.214844 21.550781 36.636719 21.550781 Z M 36.636719 21.550781 " fill-opacity="1" fill-rule="evenodd"/><path fill="#368058" d="M 38.277344 34.777344 C 38.140625 34.777344 38.003906 34.703125 37.929688 34.574219 L 36.417969 31.957031 C 36.308594 31.765625 36.375 31.519531 36.566406 31.410156 C 36.757812 31.300781 37 31.363281 37.113281 31.554688 L 38.625 34.175781 C 38.734375 34.367188 38.667969 34.613281 38.476562 34.722656 C 38.414062 34.757812 38.347656 34.777344 38.277344 34.777344 Z M 38.277344 34.777344 " fill-opacity="1" fill-rule="nonzero"/><path fill="#368058" d="M 35.3125 34.777344 C 35.238281 34.777344 35.164062 34.753906 35.09375 34.710938 L 33.097656 33.398438 C 32.984375 33.324219 32.917969 33.199219 32.917969 33.066406 C 32.917969 32.929688 32.984375 32.804688 33.097656 32.730469 L 35.09375 31.421875 C 35.277344 31.300781 35.527344 31.351562 35.648438 31.535156 C 35.769531 31.71875 35.71875 31.96875 35.53125 32.089844 L 34.046875 33.066406 L 35.53125 34.039062 C 35.71875 34.160156 35.769531 34.410156 35.648438 34.59375 C 35.570312 34.710938 35.441406 34.777344 35.3125 34.777344 Z M 35.3125 34.777344 " fill-opacity="1" fill-rule="nonzero"/><path fill="#368058" d="M 39.730469 34.777344 C 39.597656 34.777344 39.472656 34.710938 39.394531 34.59375 C 39.273438 34.410156 39.324219 34.160156 39.507812 34.039062 L 40.996094 33.066406 L 39.507812 32.089844 C 39.324219 31.96875 39.273438 31.71875 39.394531 31.535156 C 39.515625 31.351562 39.761719 31.300781 39.949219 31.421875 L 41.945312 32.730469 C 42.054688 32.804688 42.125 32.929688 42.125 33.066406 C 42.125 33.199219 42.054688 33.324219 41.945312 33.398438 L 39.949219 34.710938 C 39.878906 34.753906 39.804688 34.777344 39.730469 34.777344 Z M 39.730469 34.777344 " fill-opacity="1" fill-rule="nonzero"/><path fill="#368058" d="M 43.703125 26.984375 L 31.335938 26.984375 C 31.117188 26.984375 30.9375 26.804688 30.9375 26.582031 C 30.9375 26.363281 31.117188 26.183594 31.335938 26.183594 L 43.703125 26.183594 C 43.925781 26.183594 44.105469 26.359375 44.105469 26.582031 C 44.105469 26.804688 43.925781 26.984375 43.703125 26.984375 Z M 43.703125 26.984375 " fill-opacity="1" fill-rule="nonzero"/><path fill="#368058" d="M 43.703125 28.835938 L 31.335938 28.835938 C 31.117188 28.835938 30.9375 28.65625 30.9375 28.433594 C 30.9375 28.214844 31.117188 28.035156 31.335938 28.035156 L 43.703125 28.035156 C 43.925781 28.035156 44.105469 28.214844 44.105469 28.433594 C 44.105469 28.65625 43.925781 28.835938 43.703125 28.835938 Z M 43.703125 28.835938 " fill-opacity="1" fill-rule="nonzero"/><path fill="#368058" d="M 43.703125 30.6875 L 31.335938 30.6875 C 31.117188 30.6875 30.9375 30.507812 30.9375 30.289062 C 30.9375 30.066406 31.117188 29.886719 31.335938 29.886719 L 43.703125 29.886719 C 43.925781 29.886719 44.105469 30.066406 44.105469 30.289062 C 44.105469 30.507812 43.925781 30.6875 43.703125 30.6875 Z M 43.703125 30.6875 " fill-opacity="1" fill-rule="nonzero"/><path fill="#368058" d="M 43.703125 36.242188 L 31.335938 36.242188 C 31.117188 36.242188 30.9375 36.066406 30.9375 35.84375 C 30.9375 35.621094 31.117188 35.441406 31.335938 35.441406 L 43.703125 35.441406 C 43.925781 35.441406 44.105469 35.621094 44.105469 35.84375 C 44.105469 36.066406 43.925781 36.242188 43.703125 36.242188 Z M 43.703125 36.242188 " fill-opacity="1" fill-rule="nonzero"/><path fill="#368058" d="M 43.703125 38.097656 L 31.335938 38.097656 C 31.117188 38.097656 30.9375 37.917969 30.9375 37.695312 C 30.9375 37.472656 31.117188 37.296875 31.335938 37.296875 L 43.703125 37.296875 C 43.925781 37.296875 44.105469 37.472656 44.105469 37.695312 C 44.105469 37.917969 43.925781 38.097656 43.703125 38.097656 Z M 43.703125 38.097656 " fill-opacity="1" fill-rule="nonzero"/><path fill="#368058" d="M 43.703125 39.949219 L 31.335938 39.949219 C 31.117188 39.949219 30.9375 39.769531 30.9375 39.546875 C 30.9375 39.328125 31.117188 39.148438 31.335938 39.148438 L 43.703125 39.148438 C 43.925781 39.148438 44.105469 39.324219 44.105469 39.546875 C 44.105469 39.769531 43.925781 39.949219 43.703125 39.949219 Z M 43.703125 39.949219 " fill-opacity="1" fill-rule="nonzero"/><g clip-path="url(#73d3fbbae4)"><path fill="#368058" d="M 37.5 67.5 C 33.449219 67.5 29.519531 66.707031 25.820312 65.144531 C 22.25 63.632812 19.039062 61.46875 16.285156 58.714844 C 13.53125 55.960938 11.367188 52.75 9.855469 49.179688 C 8.292969 45.480469 7.5 41.550781 7.5 37.5 C 7.5 33.449219 8.292969 29.519531 9.855469 25.820312 C 11.367188 22.25 13.53125 19.039062 16.285156 16.285156 C 19.039062 13.53125 22.25 11.367188 25.820312 9.855469 C 29.519531 8.292969 33.449219 7.5 37.5 7.5 C 41.550781 7.5 45.480469 8.292969 49.179688 9.855469 C 52.75 11.367188 55.960938 13.53125 58.714844 16.285156 C 61.46875 19.039062 63.632812 22.25 65.144531 25.820312 C 66.707031 29.519531 67.5 33.449219 67.5 37.5 C 67.5 41.550781 66.707031 45.480469 65.144531 49.179688 C 63.632812 52.75 61.46875 55.960938 58.714844 58.714844 C 55.960938 61.46875 52.75 63.632812 49.179688 65.144531 C 45.480469 66.707031 41.550781 67.5 37.5 67.5 Z M 37.5 8.289062 C 21.394531 8.289062 8.289062 21.394531 8.289062 37.5 C 8.289062 53.605469 21.394531 66.710938 37.5 66.710938 C 53.605469 66.710938 66.710938 53.605469 66.710938 37.5 C 66.710938 21.394531 53.605469 8.289062 37.5 8.289062 Z M 37.5 8.289062 " fill-opacity="1" fill-rule="nonzero"/></g><g fill="#000000" fill-opacity="1"><g transform="translate(28.922951, 63.501353)"><g><path d="M 0.683594 -5.6875 L 2.960938 0.0976562 L 3.136719 0.0976562 L 5.355469 -5.679688 C 5.679688 -6.519531 5.914062 -6.664062 6.15625 -6.734375 L 6.15625 -6.839844 L 5.09375 -6.839844 L 5.09375 -6.734375 C 5.433594 -6.664062 5.445312 -6.304688 5.210938 -5.679688 L 3.253906 -0.578125 L 1.25 -5.6875 C 0.929688 -6.519531 0.917969 -6.664062 1.191406 -6.734375 L 1.191406 -6.839844 L -0.0390625 -6.839844 L -0.0390625 -6.734375 C 0.15625 -6.664062 0.363281 -6.519531 0.683594 -5.6875 Z M 0.683594 -5.6875 "/></g></g></g><g fill="#000000" fill-opacity="1"><g transform="translate(35.002352, 63.501353)"><g><path d="M 2.777344 0.0976562 C 3.96875 0.0976562 4.996094 -0.65625 4.996094 -1.738281 C 4.996094 -2.765625 4.144531 -3.195312 2.980469 -3.675781 C 2.082031 -4.046875 1.054688 -4.445312 1.054688 -5.40625 C 1.054688 -6.3125 1.789062 -6.761719 2.589844 -6.761719 C 3.890625 -6.761719 4.417969 -6.089844 4.742188 -5.414062 L 4.820312 -5.433594 L 4.78125 -6.421875 C 4.535156 -6.578125 3.917969 -6.910156 2.84375 -6.910156 C 1.515625 -6.910156 0.605469 -6.214844 0.605469 -5.140625 C 0.605469 -4.210938 1.210938 -3.734375 2.53125 -3.214844 C 3.402344 -2.875 4.523438 -2.414062 4.523438 -1.417969 C 4.523438 -0.636719 3.800781 -0.0507812 2.914062 -0.0507812 C 1.476562 -0.0507812 0.871094 -0.917969 0.539062 -1.855469 L 0.441406 -1.847656 L 0.507812 -0.597656 C 0.917969 -0.304688 1.730469 0.0976562 2.777344 0.0976562 Z M 2.777344 0.0976562 "/></g></g></g><g fill="#000000" fill-opacity="1"><g transform="translate(40.358484, 63.501353)"><g><path d="M 0.539062 0 L 5.21875 0 L 5.308594 -1.164062 L 5.21875 -1.183594 C 4.898438 -0.363281 4.378906 -0.128906 3.5 -0.128906 L 1.867188 -0.128906 C 1.613281 -0.128906 1.476562 -0.265625 1.476562 -0.519531 L 1.476562 -3.578125 L 3.078125 -3.578125 C 4.09375 -3.578125 4.308594 -3.351562 4.386719 -2.992188 L 4.496094 -2.992188 L 4.496094 -4.289062 L 4.386719 -4.289062 C 4.308594 -3.929688 4.09375 -3.703125 3.078125 -3.703125 L 1.476562 -3.703125 L 1.476562 -6.714844 L 3.234375 -6.714844 C 4.113281 -6.714844 4.652344 -6.421875 4.957031 -5.660156 L 5.042969 -5.679688 L 4.925781 -6.839844 L 0.539062 -6.839844 L 0.539062 -6.734375 C 0.8125 -6.664062 0.929688 -6.5 0.929688 -5.601562 L 0.929688 -1.242188 C 0.929688 -0.34375 0.8125 -0.175781 0.539062 -0.109375 Z M 0.539062 0 "/></g></g></g></svg>